<mxfile host="app.diagrams.net" modified="2022-06-18T07:40:03.149Z" agent="5.0 (Windows NT 10.0; Win64; x64) AppleWebKit/537.36 (KHTML, like Gecko) Chrome/102.0.5005.124 Safari/537.36 Edg/102.0.1245.44" etag="HDJnk4Pgt699UJWp3NBr" version="20.0.1" type="github">
  <diagram id="19MbuUc1BT7nycTp4Nkc" name="Page-1">
    <mxGraphModel dx="1364" dy="772" grid="1" gridSize="10" guides="1" tooltips="1" connect="1" arrows="1" fold="1" page="1" pageScale="1" pageWidth="827" pageHeight="1169" math="0" shadow="0">
      <root>
        <mxCell id="0" />
        <mxCell id="1" parent="0" />
        <mxCell id="CGRJ25Iukog198GcqVwM-1" value="" style="rounded=1;whiteSpace=wrap;html=1;" vertex="1" parent="1">
          <mxGeometry x="130" y="310" width="630" height="410" as="geometry" />
        </mxCell>
        <mxCell id="CGRJ25Iukog198GcqVwM-20" value="" style="edgeStyle=orthogonalEdgeStyle;rounded=0;orthogonalLoop=1;jettySize=auto;html=1;shape=flexArrow;entryX=0.525;entryY=0.019;entryDx=0;entryDy=0;entryPerimeter=0;" edge="1" parent="1" source="CGRJ25Iukog198GcqVwM-2" target="CGRJ25Iukog198GcqVwM-9">
          <mxGeometry relative="1" as="geometry" />
        </mxCell>
        <mxCell id="CGRJ25Iukog198GcqVwM-2" value="" style="rounded=1;whiteSpace=wrap;html=1;" vertex="1" parent="1">
          <mxGeometry x="220" y="330" width="500" height="100" as="geometry" />
        </mxCell>
        <mxCell id="CGRJ25Iukog198GcqVwM-3" value="学生成绩管理" style="rounded=1;whiteSpace=wrap;html=1;" vertex="1" parent="1">
          <mxGeometry x="392.5" y="350" width="130" height="50" as="geometry" />
        </mxCell>
        <mxCell id="CGRJ25Iukog198GcqVwM-4" value="学生社会实践信息管理" style="rounded=1;whiteSpace=wrap;html=1;" vertex="1" parent="1">
          <mxGeometry x="550" y="350" width="130" height="50" as="geometry" />
        </mxCell>
        <mxCell id="CGRJ25Iukog198GcqVwM-5" value="应用交互层" style="text;html=1;strokeColor=none;fillColor=none;align=center;verticalAlign=middle;whiteSpace=wrap;rounded=0;" vertex="1" parent="1">
          <mxGeometry x="150" y="385" width="60" height="30" as="geometry" />
        </mxCell>
        <mxCell id="CGRJ25Iukog198GcqVwM-6" value="合约层" style="text;html=1;strokeColor=none;fillColor=none;align=center;verticalAlign=middle;whiteSpace=wrap;rounded=0;" vertex="1" parent="1">
          <mxGeometry x="140" y="500" width="60" height="30" as="geometry" />
        </mxCell>
        <mxCell id="CGRJ25Iukog198GcqVwM-8" value="学生管理" style="rounded=1;whiteSpace=wrap;html=1;" vertex="1" parent="1">
          <mxGeometry x="260" y="350" width="100" height="55" as="geometry" />
        </mxCell>
        <mxCell id="CGRJ25Iukog198GcqVwM-22" value="" style="edgeStyle=orthogonalEdgeStyle;shape=flexArrow;rounded=0;orthogonalLoop=1;jettySize=auto;html=1;exitX=0.441;exitY=-0.044;exitDx=0;exitDy=0;exitPerimeter=0;" edge="1" parent="1" source="CGRJ25Iukog198GcqVwM-9">
          <mxGeometry relative="1" as="geometry">
            <mxPoint x="430" y="430" as="targetPoint" />
          </mxGeometry>
        </mxCell>
        <mxCell id="CGRJ25Iukog198GcqVwM-25" value="" style="edgeStyle=orthogonalEdgeStyle;shape=flexArrow;rounded=0;orthogonalLoop=1;jettySize=auto;html=1;" edge="1" parent="1" source="CGRJ25Iukog198GcqVwM-9">
          <mxGeometry relative="1" as="geometry">
            <mxPoint x="458" y="600" as="targetPoint" />
          </mxGeometry>
        </mxCell>
        <mxCell id="CGRJ25Iukog198GcqVwM-9" value="" style="rounded=1;whiteSpace=wrap;html=1;" vertex="1" parent="1">
          <mxGeometry x="220" y="480" width="475" height="80" as="geometry" />
        </mxCell>
        <mxCell id="CGRJ25Iukog198GcqVwM-11" value="存储学生信息合约" style="rounded=1;whiteSpace=wrap;html=1;" vertex="1" parent="1">
          <mxGeometry x="250" y="500" width="110" height="40" as="geometry" />
        </mxCell>
        <mxCell id="CGRJ25Iukog198GcqVwM-12" value="学生成绩增加、删除、查询合约" style="rounded=1;whiteSpace=wrap;html=1;" vertex="1" parent="1">
          <mxGeometry x="390" y="500" width="132.5" height="40" as="geometry" />
        </mxCell>
        <mxCell id="CGRJ25Iukog198GcqVwM-13" value="学生社会实践信息增加、删除、查询合约" style="rounded=1;whiteSpace=wrap;html=1;" vertex="1" parent="1">
          <mxGeometry x="560" y="500" width="110" height="40" as="geometry" />
        </mxCell>
        <mxCell id="CGRJ25Iukog198GcqVwM-14" value="数据存储层" style="text;html=1;strokeColor=none;fillColor=none;align=center;verticalAlign=middle;whiteSpace=wrap;rounded=0;" vertex="1" parent="1">
          <mxGeometry x="150" y="585" width="60" height="30" as="geometry" />
        </mxCell>
        <mxCell id="CGRJ25Iukog198GcqVwM-26" value="" style="edgeStyle=orthogonalEdgeStyle;shape=flexArrow;rounded=0;orthogonalLoop=1;jettySize=auto;html=1;entryX=0.582;entryY=1.019;entryDx=0;entryDy=0;entryPerimeter=0;exitX=0.559;exitY=0.001;exitDx=0;exitDy=0;exitPerimeter=0;" edge="1" parent="1" source="CGRJ25Iukog198GcqVwM-15" target="CGRJ25Iukog198GcqVwM-9">
          <mxGeometry relative="1" as="geometry" />
        </mxCell>
        <mxCell id="CGRJ25Iukog198GcqVwM-15" value="" style="rounded=1;whiteSpace=wrap;html=1;" vertex="1" parent="1">
          <mxGeometry x="217" y="600" width="500" height="100" as="geometry" />
        </mxCell>
        <mxCell id="CGRJ25Iukog198GcqVwM-16" value="区块链 Hyperleger Fabric 状态数据库" style="rounded=1;whiteSpace=wrap;html=1;" vertex="1" parent="1">
          <mxGeometry x="264.5" y="620" width="386" height="60" as="geometry" />
        </mxCell>
      </root>
    </mxGraphModel>
  </diagram>
</mxfile>
